<svg id="visual" viewBox="0 0 4000 100" width="4000" height="100" xmlns="http://www.w3.org/2000/svg" xmlns:xlink="http://www.w3.org/1999/xlink" version="1.1"><path d="M0 9L29 7.8C58 6.7 116 4.3 174 3.7C232 3 290 4 348 3.7C406 3.3 464 1.7 522 2.5C580 3.3 638 6.7 696 9.7C754 12.7 812 15.3 869.8 13.7C927.7 12 985.3 6 1043.2 9.5C1101 13 1159 26 1217 33.7C1275 41.3 1333 43.7 1391 46.3C1449 49 1507 52 1565 54.7C1623 57.3 1681 59.7 1739 53.2C1797 46.7 1855 31.3 1913 22.2C1971 13 2029 10 2087 11.5C2145 13 2203 19 2261 23.2C2319 27.3 2377 29.7 2435 27.2C2493 24.7 2551 17.3 2609 22.2C2667 27 2725 44 2783 46.8C2841 49.7 2899 38.3 2956.8 31C3014.7 23.7 3072.3 20.3 3130.2 24C3188 27.7 3246 38.3 3304 39.5C3362 40.7 3420 32.3 3478 27.2C3536 22 3594 20 3652 17.3C3710 14.7 3768 11.3 3826 15.3C3884 19.3 3942 30.7 3971 36.3L4000 42L4000 0L3971 0C3942 0 3884 0 3826 0C3768 0 3710 0 3652 0C3594 0 3536 0 3478 0C3420 0 3362 0 3304 0C3246 0 3188 0 3130.2 0C3072.3 0 3014.7 0 2956.8 0C2899 0 2841 0 2783 0C2725 0 2667 0 2609 0C2551 0 2493 0 2435 0C2377 0 2319 0 2261 0C2203 0 2145 0 2087 0C2029 0 1971 0 1913 0C1855 0 1797 0 1739 0C1681 0 1623 0 1565 0C1507 0 1449 0 1391 0C1333 0 1275 0 1217 0C1159 0 1101 0 1043.2 0C985.3 0 927.7 0 869.8 0C812 0 754 0 696 0C638 0 580 0 522 0C464 0 406 0 348 0C290 0 232 0 174 0C116 0 58 0 29 0L0 0Z" fill="#3f0b99"></path><path d="M0 32L29 28.3C58 24.7 116 17.3 174 16C232 14.7 290 19.3 348 19.2C406 19 464 14 522 14.8C580 15.7 638 22.3 696 27.3C754 32.3 812 35.7 869.8 31.7C927.7 27.7 985.3 16.3 1043.2 20.3C1101 24.3 1159 43.7 1217 52.5C1275 61.3 1333 59.7 1391 60.2C1449 60.7 1507 63.3 1565 65C1623 66.7 1681 67.3 1739 63.2C1797 59 1855 50 1913 40.3C1971 30.7 2029 20.3 2087 20.8C2145 21.3 2203 32.7 2261 37.5C2319 42.3 2377 40.7 2435 36.2C2493 31.7 2551 24.3 2609 31C2667 37.7 2725 58.3 2783 62.5C2841 66.7 2899 54.3 2956.8 48.7C3014.7 43 3072.3 44 3130.2 47.5C3188 51 3246 57 3304 57.2C3362 57.3 3420 51.7 3478 45.5C3536 39.3 3594 32.7 3652 27.8C3710 23 3768 20 3826 25.8C3884 31.7 3942 46.3 3971 53.7L4000 61L4000 40L3971 34.3C3942 28.7 3884 17.3 3826 13.3C3768 9.3 3710 12.7 3652 15.3C3594 18 3536 20 3478 25.2C3420 30.3 3362 38.7 3304 37.5C3246 36.3 3188 25.7 3130.2 22C3072.3 18.3 3014.7 21.7 2956.8 29C2899 36.3 2841 47.7 2783 44.8C2725 42 2667 25 2609 20.2C2551 15.3 2493 22.7 2435 25.2C2377 27.7 2319 25.3 2261 21.2C2203 17 2145 11 2087 9.5C2029 8 1971 11 1913 20.2C1855 29.3 1797 44.7 1739 51.2C1681 57.7 1623 55.3 1565 52.7C1507 50 1449 47 1391 44.3C1333 41.7 1275 39.3 1217 32C1159 24.7 1101 12.3 1043.2 8.8C985.3 5.3 927.7 10.7 869.8 12C812 13.3 754 10.7 696 8C638 5.3 580 2.7 522 1.8C464 1 406 2 348 2C290 2 232 1 174 1.7C116 2.3 58 4.7 29 5.8L0 7Z" fill="#da7da4"></path><path d="M0 74L29 71.2C58 68.3 116 62.7 174 61.5C232 60.3 290 63.7 348 61.7C406 59.7 464 52.3 522 55.3C580 58.3 638 71.7 696 74.5C754 77.3 812 69.7 869.8 68C927.7 66.3 985.3 70.7 1043.2 73.3C1101 76 1159 77 1217 76.3C1275 75.7 1333 73.3 1391 74.2C1449 75 1507 79 1565 79.7C1623 80.3 1681 77.7 1739 75.5C1797 73.3 1855 71.7 1913 68.2C1971 64.7 2029 59.3 2087 60.5C2145 61.7 2203 69.3 2261 71.8C2319 74.3 2377 71.7 2435 67.2C2493 62.7 2551 56.3 2609 58.8C2667 61.3 2725 72.7 2783 75.3C2841 78 2899 72 2956.8 69.2C3014.7 66.3 3072.3 66.7 3130.2 69.2C3188 71.7 3246 76.3 3304 78.8C3362 81.3 3420 81.7 3478 81.5C3536 81.3 3594 80.7 3652 79.5C3710 78.3 3768 76.7 3826 79C3884 81.3 3942 87.7 3971 90.8L4000 94L4000 59L3971 51.7C3942 44.3 3884 29.7 3826 23.8C3768 18 3710 21 3652 25.8C3594 30.7 3536 37.3 3478 43.5C3420 49.7 3362 55.3 3304 55.2C3246 55 3188 49 3130.2 45.5C3072.3 42 3014.7 41 2956.8 46.7C2899 52.3 2841 64.7 2783 60.5C2725 56.3 2667 35.7 2609 29C2551 22.3 2493 29.7 2435 34.2C2377 38.7 2319 40.3 2261 35.5C2203 30.7 2145 19.3 2087 18.8C2029 18.3 1971 28.7 1913 38.3C1855 48 1797 57 1739 61.2C1681 65.3 1623 64.7 1565 63C1507 61.3 1449 58.7 1391 58.2C1333 57.7 1275 59.3 1217 50.5C1159 41.7 1101 22.3 1043.2 18.3C985.3 14.3 927.7 25.7 869.8 29.7C812 33.7 754 30.3 696 25.3C638 20.3 580 13.7 522 12.8C464 12 406 17 348 17.2C290 17.3 232 12.7 174 14C116 15.3 58 22.7 29 26.3L0 30Z" fill="#fed3d4"></path><path d="M0 79L29 82.7C58 86.3 116 93.7 174 95C232 96.3 290 91.7 348 88C406 84.3 464 81.7 522 81.7C580 81.7 638 84.3 696 84.7C754 85 812 83 869.8 83.3C927.7 83.7 985.3 86.3 1043.2 88.3C1101 90.3 1159 91.7 1217 90C1275 88.3 1333 83.7 1391 82.8C1449 82 1507 85 1565 84.7C1623 84.3 1681 80.7 1739 82.7C1797 84.7 1855 92.3 1913 96.3C1971 100.3 2029 100.7 2087 100.8C2145 101 2203 101 2261 97C2319 93 2377 85 2435 81.2C2493 77.3 2551 77.7 2609 80.2C2667 82.7 2725 87.3 2783 87.3C2841 87.3 2899 82.7 2956.8 82.3C3014.7 82 3072.3 86 3130.2 89.2C3188 92.3 3246 94.7 3304 93.7C3362 92.7 3420 88.3 3478 87.7C3536 87 3594 90 3652 92.8C3710 95.7 3768 98.3 3826 98.7C3884 99 3942 97 3971 96L4000 95L4000 92L3971 88.8C3942 85.7 3884 79.3 3826 77C3768 74.7 3710 76.3 3652 77.5C3594 78.7 3536 79.3 3478 79.5C3420 79.7 3362 79.3 3304 76.8C3246 74.3 3188 69.7 3130.2 67.2C3072.3 64.7 3014.7 64.3 2956.8 67.2C2899 70 2841 76 2783 73.3C2725 70.7 2667 59.3 2609 56.8C2551 54.3 2493 60.7 2435 65.2C2377 69.7 2319 72.3 2261 69.8C2203 67.3 2145 59.7 2087 58.5C2029 57.3 1971 62.7 1913 66.2C1855 69.7 1797 71.3 1739 73.5C1681 75.7 1623 78.3 1565 77.7C1507 77 1449 73 1391 72.2C1333 71.3 1275 73.7 1217 74.3C1159 75 1101 74 1043.2 71.3C985.3 68.7 927.7 64.3 869.8 66C812 67.7 754 75.3 696 72.5C638 69.7 580 56.3 522 53.3C464 50.3 406 57.7 348 59.7C290 61.7 232 58.3 174 59.5C116 60.7 58 66.3 29 69.2L0 72Z" fill="#da7da4"></path><path d="M0 101L29 101C58 101 116 101 174 101C232 101 290 101 348 101C406 101 464 101 522 101C580 101 638 101 696 101C754 101 812 101 869.8 101C927.7 101 985.3 101 1043.2 101C1101 101 1159 101 1217 101C1275 101 1333 101 1391 101C1449 101 1507 101 1565 101C1623 101 1681 101 1739 101C1797 101 1855 101 1913 101C1971 101 2029 101 2087 101C2145 101 2203 101 2261 101C2319 101 2377 101 2435 101C2493 101 2551 101 2609 101C2667 101 2725 101 2783 101C2841 101 2899 101 2956.8 101C3014.7 101 3072.3 101 3130.2 101C3188 101 3246 101 3304 101C3362 101 3420 101 3478 101C3536 101 3594 101 3652 101C3710 101 3768 101 3826 101C3884 101 3942 101 3971 101L4000 101L4000 93L3971 94C3942 95 3884 97 3826 96.7C3768 96.3 3710 93.7 3652 90.8C3594 88 3536 85 3478 85.7C3420 86.3 3362 90.7 3304 91.7C3246 92.7 3188 90.3 3130.2 87.2C3072.3 84 3014.7 80 2956.8 80.3C2899 80.7 2841 85.3 2783 85.3C2725 85.3 2667 80.7 2609 78.2C2551 75.7 2493 75.3 2435 79.2C2377 83 2319 91 2261 95C2203 99 2145 99 2087 98.8C2029 98.7 1971 98.3 1913 94.3C1855 90.3 1797 82.7 1739 80.7C1681 78.7 1623 82.3 1565 82.7C1507 83 1449 80 1391 80.8C1333 81.7 1275 86.3 1217 88C1159 89.7 1101 88.3 1043.2 86.3C985.3 84.3 927.7 81.7 869.8 81.3C812 81 754 83 696 82.7C638 82.3 580 79.7 522 79.7C464 79.7 406 82.3 348 86C290 89.7 232 94.3 174 93C116 91.7 58 84.3 29 80.7L0 77Z" fill="#3f0b99"></path></svg>